<?xml version="1.0" encoding="UTF-8"?>
<svg version="1.1" viewBox="0 0 2048 1455" width="1280" height="1280" xmlns="http://www.w3.org/2000/svg">
<path transform="translate(0)" d="m0 0h2048v1455h-2048z" fill="#FCFDFC"/>
<path transform="translate(141,103)" d="m0 0h469l353 1 18 1v840l-1 1h-205l-148-1h-374l-109-1-1-1-1-19-1-54z" fill="#F89326"/>
<path transform="translate(763,1015)" d="m0 0h14l20 6 5 4 1 6-1 5 16 2 7 3 23 6 26 8 8 3 13 5 18 9 16 6 12 5 14 4 1 1 22 2 28 1 20 4 13 2 21 6 19 6 9 3 9 2 12 2h21l17-5 15-8 16-12 9-8 4-8 3-14 3-24 3-13 1-1h8l2 1v4h-2l-2 4-2 5-4 36-4 12-9 12-11 10-15 10-18 10-21 10-3 1 1 6 7 8 3 7 3 15 1 16 4 9 4 10 7 8 16 12 29 20 6 7-2 10 2 14 5 18 2 9v14l-3 2h-29l-3-1 2-5 7-7 8-6 1-2v-9l-7-14-4-7-4-5-10-7-15-7-12-5-19-10-9-4-9-1 8 16 9 11 4 5 20 14 5 5v8l-6 8-10 8-15 10-17 10-1 1 309 1-4-8-3-5-5-12-3-5 1-7 4-7 8-17 3-9 1-9-2-14-7-27-6-28-3-3-3-1v15l-3 13-6 13-3 6-9 12-11 12-7 6-6 3h-5v-5l14-17 10-13 6-11 3-8 3-23v-27l3-16 4-9 6-9 7-6 10-6 6-2 15-3 12-3 6-1h67l26 6 24 8h31l26-2 13-3 35-11 8-3h12l5 2v-2l5-5 6-18 2-2 4 1 6 6 2 7 5 5 5-1 6-8 8-10 5-1 4 4 2 17 9 10 4 6 7 20 1 9-3 7-4 8v7l4 12-2 8-4 8-9 7-8 6h-10l-12-5-11-11-3-2-5 1-12 13-10 4-7 10-6 8-10 12-4 9-2 4-1 6-1 17-1 5-1 14v23l4 9 8 7 9 5 4 3 373 1v125h-2048v-125l1058-1 2-9 3-3 11-3 11-1 16-6 6-4 7-7v-6l-9-8-17-10-11-6-13-7-8-6-6-8-5-12-1-4v-12l2-12-11-2-5-10-14-4h-21l-2 1-20 2-6 2-11 1-3 1-18 2-8 3h-11l-12-3-1-1-15-3-13-6-5-1v13l-5 5-8 1h-14l-14 6-21 10-9 6-10 8-8 9-8 4-3 7-5 17-6 8-5 4-6 1h-15l-5-2 2-5 13-13 8-11 6-11 9-17 7-10 5-5v-2l-5 1-4 5-16 4-10 13-7 8-9 6-6 2h-9l-10-4 2-4 15-16 12-10 11-9 10-9 10-5 16-5 11-2 6-2 18-4 9-4v-8l-7-14-5-14v-6h-2l-4-10v-2h-2l-4-6-6-7-9-6-14-2-8-2h-16l-8 3-19 4-13 5h-12l-6-5-2-9-6-1v-2l-4-2-6-7 1-4 5-4 14-7 6-4 5-3 5-10 4-9 10-8 14-10 14-6 10-2z" fill="#060404"/>
<path transform="translate(458,288)" d="m0 0h9l12 3 15 8 12 9 10 9 11 13 13 19 8 15 3 7v3h2l-6-14v-3l5 1 7 5 4 4 8 7 9 6 3-7 6-15 8-16 8-14 8-10 9-10 9-8 14-8 8-3 6-1h15l13 4 9 6 7 8 8 14h1 3l8 9 8 7 9 9 8 7 48 48 3 2v2l4 2 12 12 7 8 16 16 8 7 5 4 7 8 10 10 7 8 58 58 8 7 15 14 16 17 6 7h2l1 96v267l-1 1h-205l-148-1v-2l-4-1-12-14-16-16-8-7-16-15-16-17-8-8-8-7-72-72-7-8-7-7-7-8-9-10-6-4-4-5-8-7-7-8-6-10-7-18-2-10-1-10v-13l3-17 4-11 10-16 13-17 11-15 24-38 11-19 11-15 6-7 3-3-4 1-6-4-18-18-2-4-7-6-8-6-12-12-8-13-6-12-7-21-4-21-1-7v-28l4-22 5-15 8-14 12-12 8-5z" fill="#BB6B20"/>
<path transform="translate(1149,651)" d="m0 0h236l15 2 12 5 5 5 8 9 5 13 1 6v276l-3 14-6 10-10 9-10 5-7 2-9 1-24 1h-231l-20-2-13-5-11-9-7-11-3-8-1-7-1-39v-139l1-94 2-12 7-14 6-7 11-7 7-2 8-1z" fill="#F79326"/>
<path transform="translate(1692,642)" d="m0 0h30l23 3 23 6 11 5 9 4 17 9 9 6 13 10 12 11 11 11 7 9v2h2v3h2l6 10 5 8 7 14 6 16 6 21 3 18 1 10v24l-3 23-6 24-7 18-12 22-9 13-8 10-14 15-11 9-5 4-16 11-19 10-14 6-20 6-22 4-25 1-26-2-19-4-24-8-22-11-14-9-16-13-17-17-11-14-10-15-6-10-5-11-6-15-6-22-2-13-1-12v-25l3-22 6-23 7-18 8-16 6-10 8-11 9-12 8-9 8-7 7-6h2v-2l4-1v-2l5-3h2v-2h3v-2l9-5 19-10 27-9 22-4z" fill="#F89326"/>
<path transform="translate(1506,289)" d="m0 0h30l17 4 15 6 12 9 11 10 10 13 8 11 5 9 15 25 5 8 7 11 3 5v2h2l6 9 9 11 9 10 9 11 11 13 10 15 6 17 2 15-1 16-6 33-6 15-8 15-12 13-14 10-15 6-24 5h-22l-29-4-15-3-7-2-20-4-21-3-12-1-13 2-1 1-12 2-15 4-36 6-9 2-11 1h-15l-7-1-7-2-10-4-11-7-11-10-11-14-5-8-6-15-3-14-2-18v-9l2-17 3-12 8-16 14-20 11-13 11-16 11-15 10-16 6-11 16-28 10-14 9-10 5-5 9-8 9-6 21-10 24-7z" fill="#050304"/>
<path transform="translate(558,484)" d="m0 0h18l17 3 13 5 11 8 10 9 9 11 10 16 8 13 13 21 13 18 12 14 14 17 10 15 8 20 1 4v14l-8 32-6 14-8 12-9 9-14 9-17 6-5 1h-32l-23-5-20-4-19-5-17-1-21 5-17 4-32 6-12 1h-13l-12-3-11-7-12-11-6-8-6-11-6-15-2-10-1-10v-13l3-17 4-11 10-16 13-17 11-15 24-38 11-19 11-15 6-7 17-12 15-8 18-6z" fill="#040304"/>
<path transform="translate(1661,728)" d="m0 0h9l10 5 10 9 6 7 9 14 3 7v8l5-1 2-4 4-12 7-14 8-10 9-7 6-2h13l8 5 7 12 3 6 8 3 12 11 9 9 7 8 9 10 3 1v2l3 1 5 7v5h2l1 7h7l9 5 1 3 3 1 2 6v13l-2 17-6 28-8 17-14 22-8 10-5 6-8 7-13 10-13 8-16 8-24 8-14 3h-13l-2-2-11-4-9-7-16-15-11-11-16-14-5-5-7-9-4-11v-17l3-12 8-11 7-10 13-22 6-8 8-7 10-5 8-2v-2l-21 5-4 3h-6l-3-4v-2l-4-2-8-8-6-9-6-22-1-12 4-17 4-8 8-7z" fill="#BB6B20"/>
<path transform="translate(1208,725)" d="m0 0h7l11 6 8 7 11 14 6 12 1 8 3 1 1 2 3 1 1-7 4-8 6-14 8-10 8-7 10-5h9l6 3 7 7 8 14 7 3 11 10 8 7 7 8 9 8 2 1v2h2l10 14 1 4v8l-5 16-8 15-11 11-9 5-10 3h-8l-9-3v4l-4 1-1 3-2-1v-3l-2 1 7 10 6 12v9l-4 14-6 10-9 8-9 3-5 1h-11l-14-3-12-4-13-1-17 7-7 1h-17l-8-4-9-11-4-10-1-4v-13l2-11h-8l-8-10-3-5v-3l-4-2-4-4-2-1v-3l-4-2-8-7-8-9-6-12-1-3v-15l5-9 4-3 3-1h19l12 4 14 7 9 8 4 7 4 4v2l7-2 3-2 1-4h-2l-3-5-6-5-9-13-5-17-1-5v-13l3-12 6-12 8-6z" fill="#BB6B1F"/>
<path transform="translate(1385,51)" d="m0 0h18l15 6 15 9 9 7 10 9 7 7 9 11 11 15 6 10 8 14 4 9 5 14 5 21 1 9v18l-3 18-2 7-6 12-8 10-10 10-16 11-12 6-8 3-19 4h-16l-16-4-8-4-12-9-9-8-10-13-8-13-9-24-3-13-2-5-3-19-1-12v-25l2-18 5-19 5-13 8-14 8-10 11-9 14-7z" fill="#060404"/>
<path transform="translate(1630,51)" d="m0 0h21l12 4 9 7 8 8 9 14 6 13 4 11 6 26 2 15v39l-1 3-1 11-4 20-9 20-6 10-9 11-11 10h-2v2l-12 6-13 5-12 2h-25l-16-2-14-5-14-9-8-7-10-13-5-12-4-13-1-6v-31l2-13 4-16 4-14 6-13 8-17 7-11 3-5 11-14 19-19 10-7 14-7z" fill="#060404"/>
<path transform="translate(1149,651)" d="m0 0h236l15 2 12 5 5 5 8 9 5 13 1 6v276l-3 14-6 10-10 9-10 5-7 2-9 1-24 1h-231l-20-2-13-5-11-9-7-11-3-8-1-7-1-39v-139l1-94 2-12 7-14 6-7 11-7 7-2 8-1zm-28 25-9 3-6 4-5 7-1 5-1 19v211l1 36 2 10 5 8 12 3 22 1h109l141-1 7-3 5-5 3-5 1-4 1-13 1-80v-37l-1-139-2-7-8-8-8-4-9-1z" fill="#301F1A"/>
<path transform="translate(1692,642)" d="m0 0h30l23 3 23 6 11 5 9 4 17 9 9 6 13 10 12 11 11 11 7 9v2h2v3h2l6 10 5 8 7 14 6 16 6 21 3 18 1 10v24l-3 23-6 24-7 18-12 22-9 13-8 10-14 15-11 9-5 4-16 11-19 10-14 6-20 6-22 4-25 1-26-2-19-4-24-8-22-11-14-9-16-13-17-17-11-14-10-15-6-10-5-11-6-15-6-22-2-13-1-12v-25l3-22 6-23 7-18 8-16 6-10 8-11 9-12 8-9 8-7 7-6h2v-2l4-1v-2l5-3h2v-2h3v-2l9-5 19-10 27-9 22-4zm3 30-18 2-21 5-20 8-19 10-13 10-10 9-9 9-2 5-3 1-7 10-5 7v3h-2l-8 16-4 9-7 23-2 18v26l3 22 8 26 10 21h2l2 7 4 6h2l1 4h2l2 5 6 7h2l2 4 12 12 4 1 1 3 11 8 11 6 15 7 22 6 17 3 10 1h22l17-2 18-4 10-3 11-5 14-7 15-9 13-11 6-5 7-8 8-11 6-8 6-11 7-14 6-16 2-5 2-12 1-2 1-22v-24l-3-20-4-13-3-8-8-16-7-13-6-8-11-13-10-10-14-11-10-7-12-7-13-6-19-6-15-2-2-1z" fill="#3E2316"/>
<path transform="translate(1790,238)" d="m0 0h21l19 5 12 7 9 8 6 9 3 10v25l-3 15-3 9-8 20-6 10-9 14-10 13-12 14-11 9-13 9-12 7-11 4-9 2h-23l-19-5-18-11-14-12-9-11-7-12-3-12v-24l3-11 9-19 4-5 1-3h2l2-4 11-12 11-10 20-14 14-8 11-5 12-5 11-3 14-3z" fill="#060404"/>
<path transform="translate(1212,230)" d="m0 0h17l27 4 15 4 14 5 16 8 13 7 17 12 10 9 9 12 9 16 4 10 2 13v10l-2 14-7 19-11 17-7 9-11 9-12 6-5 2-16 2-14-1-12-3-17-7-19-12-12-9-13-12-7-7-12-16-8-12-8-15-4-11-4-16-1-8v-10l3-16 4-9 6-8 8-7 12-6z" fill="#060404"/>
<path transform="translate(514,1042)" d="m0 0h5l5 6 6 19 3 15v21l-4 16-8 23-4 8-3 7-8 14-8 11-2 6-1 24-5 8-14 10-4 3-1 28-3 7-6 8-5 3-7 1-5 2-6 2-2 1 1 9 1 2v8l-1 1h-6l-7-5-5-5-13-6-17-1-10-4-3-3v-2l-4-2-4-5-1-3v-12h-14l-9-3-10-6v-2l-4-2-11-9-6-4-15-5-6-1h-12l-2 1h-7l-8-3-5-5v-7l5-8 4-14 10-13 1-4-4-7v-5l7 1 8 6 9 6 10 4 19 8 10 5 8-4 12-5 10-6 13-9 9-6 12-6 8-2h20l20 4 20 6 12 6 1-4 7-10 5-9 8-13 7-14 4-12 1-28-2-22-2-8 1-4z" fill="#080505"/>
<path transform="translate(659,288)" d="m0 0h15l13 4 9 6 7 8 8 14 5 14 6 26 3 19v16l-6 28-5 15-9 17-11 12-13 8-16 7-10 3h-18l-24-6-9-5-10-9-8-11-5-11-6-23 1-17 5-22 5-16 9-20 10-17 8-10 9-10 9-8 14-8 8-3z" fill="#040304"/>
<path transform="translate(458,288)" d="m0 0h9l12 3 15 8 12 9 10 9 11 13 13 19 8 15 7 19 3 13 1 18-3 20-5 13-9 11-10 10-16 10-14 7-5 1h-23l-11-2-14-9-14-14-8-13-6-12-7-21-4-21-1-7v-28l4-22 5-15 8-14 12-12 8-5z" fill="#040304"/>
<path transform="translate(792,443)" d="m0 0 20 1 16 4 11 8 7 10 4 12v17l-4 17-8 20-8 14-10 13-11 13-9 8-17 12-12 5-12 3h-15l-15-4-12-6-9-7-9-8-9-13-5-11-2-10v-8l2-10 4-10 9-16 12-14 11-9 12-9 16-9 15-7 13-4z" fill="#040304"/>
<path transform="translate(307,436)" d="m0 0h22l16 2 25 7 21 10 17 11 9 7 9 11 8 13 5 12 2 9-1 14-5 17-7 14-12 14-10 7-12 5-8 2h-11l-16-3-14-5-11-7-10-8-10-9-10-10-10-13-8-13-8-16-4-14v-25l3-10 6-8 9-8 8-4z" fill="#040304"/>
<path transform="translate(1471,1202)" d="m0 0 9 1 10 4 12 8h5l1-1 2-10 2-2 8 1 12 4 7 2 10 2 8 3 29 6 20 4 1 1-1 9-6 20-5 10-6 10-6 5-4 1v3l7 2 2 2v8l-1 2v13l3 3 5 2 8 1h12l2-1v-10l-5-5-7-5-1-5 4-8 4-10 7-14 3 1 1 2 1 16 2 7 2 20 1 17 12 5 5 3v2h-170l-8-7-10-3-7-6-5-7-2-6v-12l2-5 4-16 5-11 7-21 4-18 3-8z" fill="#FCFCF9"/>
<path transform="translate(1407,696)" d="m0 0h1l1 139v37l-1 80-1 13-3 8-4 5-5 3-4 1-141 1h-109l-22-1v-1l32-1 91-1 1-3-1-3-8-7-17-16-11-11v-2l-4-2-5-3 1-2 5 2h17l10-2 14-6 13 1 15 5 11 2h11l11-3 7-4 7-8 4-8 3-12v-9l-7-14-6-9h3l2 3 3-3 2-1-1-4 10 3h8l13-4 9-7 7-7 9-17 4-14v-10l8 6 13 8 4 1z" fill="#BB6B20"/>
<path transform="translate(1707,813)" d="m0 0 11 1 13 5 9 8 10 15 7 12 10 13 8 11 6 12v12l-4 11-6 10-9 8-8 3h-18l-16-2-13-5-6-1-3 3-10 3-7 1h-29l-8-7-6-10-2-7v-17l3-12 8-11 7-10 13-22 6-8 8-7 10-5z" fill="#050304"/>
<path transform="translate(1248,813)" d="m0 0h13l13 3 9 6 6 7 10 17 10 14 8 10 8 13 2 5v9l-4 14-6 10-9 8-9 3-5 1h-11l-14-3-12-4-13-1-17 7-7 1h-17l-8-4-9-11-4-10-1-4v-13l4-12 7-11 7-10 12-19 7-10 9-9 11-5z" fill="#050304"/>
<path transform="translate(436,501)" d="m0 0 7 3 10 8 15 11 5 4v4l2 1-10 17-13 21-16 25-14 18-14 20-3 6h-3l-3 1-8-4-8-8-8-7-9-9-9-11-8-9v-4h-2l-5-7 6 2 11 4 16 3h11l14-4 11-6 8-7 9-12 6-12 5-17 1-14-3-12z" fill="#BB6B1F"/>
<path transform="translate(1749,728)" d="m0 0h13l8 5 7 12 3 12 1 10v10l-2 11-4 10-7 9-9 6-11 2h-10l-12-6-7-7-3-6-2-10v-8l4-15 8-16 8-10 9-7z" fill="#050404"/>
<path transform="translate(1296,725)" d="m0 0h9l6 3 7 7 8 14 1 13-1 18-3 11-4 7-7 8-7 5-3 1-16 1-14-6-8-8-3-8v-20l4-13 7-14 10-11 11-7z" fill="#050404"/>
<path transform="translate(1208,725)" d="m0 0h7l11 6 8 7 11 14 6 12 2 8v16l-4 10-5 6-11 6-5 3-9 2-9-2-9-8-9-13-5-17-1-5v-13l3-12 6-12 8-6z" fill="#060404"/>
<path transform="translate(1661,728)" d="m0 0h9l10 5 10 9 6 7 9 14 2 8v21l-5 10-8 6-14 7-6 2-9-1-8-7-6-7-4-6-6-22-1-12 4-17 4-8 8-7z" fill="#060404"/>
<path transform="translate(1695,672)" d="m0 0h34l9 2 10 2 17 5 17 8 11 7 16 12 13 12 10 11 7 9 8 14 8 15 3 10 3 7v7l-2-2-11-27-9-16-5-9-9-12-7-7v-2l-4-2-9-8-11-8-12-7-20-8-28-6-11-2h-28l-19 3-21 6-17 7-23 13-16 13-12 13-12 18-11 20-8 22-3 13-1 16v13l1 17 4 20 8 23 9 17 10 15 8 10 14 14 13 10 19 11 19 8 17 5 19 3h31l20-4 24-8 16-8 13-8 14-11 8-7 8-10 7-10 8-13 8-16 6-15 4-15 1-6 1-17v-34l2 1 2 25-1 28-2 7-2 11-10 24-6 10-6 11-8 10-6 8-7 8-11 9-9 7-16 9-10 5-11 5-18 5-15 3-12 1h-22l-22-3-17-4-10-3-22-11-11-7-5-4v-2l-5-2-13-13v-2l-4-2-6-8v-2h-2l-1-4h-2l-5-9-1-4h-2l-11-24-7-23-3-22v-26l2-18 7-23 4-9 8-16h2l1-4 9-13 3-4h2l2-5 16-16 16-12 23-12 20-7 17-4z" fill="#FCFBF7"/>
<path transform="translate(1706,669)" d="m0 0h21l28 5 11 3 15 7h3l6 1 8 2 10 6 10 8 10 9 19 19 7 10 8 19 3 11v9l4 7 3 7 2 9 2 4 1 7v27l-3 27-6 22-2 9-8 17-11 18-7 9-8 7-7 7-16 12-7 4h-2l-1-2-8 3v-3l5-5 10-7 10-9 5-5 8-9 6-8 5-7 6-11 7-14 6-16 2-5 2-12 1-2 1-22v-24l-3-20-4-13-3-8-8-16-7-13-6-8-11-13-9-9-14-11-10-7-12-7-13-6-19-6-15-2-2-1-24-2z" fill="#0D0806"/>
<path transform="translate(1815,796)" d="m0 0 10 1 6 3 5 6 1 2v11l-4 12-7 13-12 13-9 6-6 2h-13l-10-4-7-6-7-10-2-6 1-6 8-16 9-9 12-7 16-4z" fill="#060404"/>
<path transform="translate(1360,793)" d="m0 0h8l9 6 6 7v8l-5 16-8 15-11 11-9 5-10 3h-8l-10-4-9-10-6-9-1-2v-6l6-12 7-9 9-8 12-6 14-4z" fill="#060404"/>
<path transform="translate(1594,792)" d="m0 0h12l13 4 12 5 9 5 8 8 9 15-1 8-8 16-8 8-3 2-11 1-11-4-12-9-9-8-10-14-4-13 1-10 6-10z" fill="#050304"/>
<path transform="translate(1139,791)" d="m0 0h19l12 4 14 7 9 8 8 14 1 10-7 14-8 9-11 4-15-4-10-6-10-9-7-8-6-12-1-3v-15l5-9 4-3z" fill="#050304"/>
<path transform="translate(1778,749)" d="m0 0 2 2 8 3 12 11 9 9 7 8 9 10 3 1v2l3 1 5 7-1 3-5-6-10-3-14 1-16 4-13 8-7 7-8 16-1 6 4 9 8 10 7 4 2 1v2l-5 1-1 7 3 5 2 9h-2l-7-12-14-18-8-13-9-14-6-7-8-5-9-3-11-1-8 1v-2l-21 5-4 3h-6l-3-5h9l13-5 13-8 3-4 3-7v-21l-1-6 2 1 1 4v8l5-1 1-3 1 4v8l3 13 8 9 12 6h10l11-2 9-6 7-10 4-12 1-7v-10z" fill="#DD7C1A"/>
<path transform="translate(1831,690)" d="m0 0 4 2 15 15 7 9v2h2v3h2l6 10 5 8 7 14 6 16 6 21 3 18 1 10v24l-3 23-6 24-7 18-12 22-9 13-8 10-14 15-11 9-1-3 9-8 1-2-4 1h-1l-8 4v-3l14-14 2-5 9-10 9-15 8-16 9-24 5-22 3-24v-26l-1-18-4-15-7-20-9-19 1-6-2-5-2-6-9-10-8-11-5-5z" fill="#311F19"/>
<path transform="translate(1598,954)" d="m0 0 4 1 5 3 5 5 7 5 11 6 15 7 22 6 17 3 10 1h22l17-2 18-4 10-3 11-5 14-7 5-3 2 1-2 3 10-3-1 3 6-2-3 3-17 10-15 6-21 3-11 4-12 2-10 3-10 2-17-1-14-3-22-5-15-5v-2l-5-1-14-5-11-7-9-7-1-1v-9z" fill="#352219"/>
<path transform="translate(1778,749)" d="m0 0 2 2 8 3 12 11 9 9 7 8 9 10 3 1v2l3 1 5 7-1 3-5-6-10-3-14 1-10 1-14 1-3-4h-3l1-6 2-6 1-7v-10z" fill="#BB6B1F"/>
<path transform="translate(1234,810)" d="m0 0 4 1 2 1v2h-2v2l-12 6-9 9-15 24-11 16-6 10-2 3v-4h-8l-8-10-3-5v-3l-4-2-4-4-2-1 1-2 8 4 13 3 11-4 8-10 6-12-1-10-2-6 3 3v2l7-2 3-2 1-4h10l9-3z" fill="#DF7D19"/>
<path transform="translate(1174,670)" d="m0 0 102 1 29 1 66 1 15 1 10 4 2 3-5-2-12-2h-260l-9 3-4 1 4-4 8-4 16-2h15z" fill="#3B2116"/>
<path transform="translate(1631,685)" d="m0 0m-1 1m-2 1 3 1-1 3-16 9-16 13-12 12-3 5-5 5-8 12-2 4h-2l-1 4-8 15-5 15-3 2v-11l-2-3 2-10 8-16 10-15 8-11 5-5 11-10h2v-2l9-6 7-1 9-5 5-2z" fill="#2F1E19"/>
<path transform="translate(455,479)" d="m0 0 4 2 5 5 3 5 17 17 5 2h3l-1 3-5 5-6 7-4 6h-3l-2-5-11-8-16-12-7-4-3-3-2-5 4-2 3 3 5-2h5l5 2 1 2 3 1v2l7 1 2 3-1 1 3 1v-9l-10-10-4-6z" fill="#E17E19"/>
<path transform="translate(1693,662)" d="m0 0h31l30 5 21 6 19 9 13 9-2 1-9-5-12-3-1 2-13-6-11-4-25-5-7-1h-21l12 1v1l-23 1-18 2-14 3h-6l1-3 18-5 5-1 2-4z" fill="#32211A"/>
<path transform="translate(1121,676)" d="m0 0h260l12 2 8 6 6 7-1 4-2-5-6-5v-2l-5-2-3-1-194-1h-72l-10 2-6 3-3 2 2-4 9-5z" fill="#BB6B1F"/>
<path transform="translate(1124,678)" d="m0 0h72l194 1 6 3-3 1-2-1-44-1h-16l-62 2h-27l-50-1-48-2h-27v-1z" fill="#E27F19"/>
<path transform="translate(1149,651)" d="m0 0h236l15 2 3 2-68-1-218-1v-1z" fill="#D57C23"/>
<path transform="translate(1656,827)" d="m0 0 6 3v2l3-1-2 7-4 2v2h-2l-2 5-5 10-1 5 3 1-8 11-6 9v-4l-4 1-7-4-3-5 3-3-5-3v-2h8l7-1 10-9 8-16 1-8z" fill="#E17E19"/>
<path transform="translate(1544,821)" d="m0 0h1l1 22 3 22 8 26 9 18v3h2l4 8 2 5h2l1 4h2l4 6 4 5 5 5v2l4 2-1 3-4-2-12-14-12-15-3-6-3-3-7-16-7-20-1-3-3-1-1-7 1-5-1-7v-10h2z" fill="#4B2E1B"/>
<path transform="translate(1598,954)" d="m0 0 4 1 5 3 5 5 7 5 11 6 15 7 10 3 1 3-10-2-6-1 2 3-6-1-16-6-11-7-9-7-1-1v-9z" fill="#2B1C18"/>
<path transform="translate(1285,823)" d="m0 0h2l5 5 5 2 6 5 3 5 3 3 10 13 5 6-1 3-4 1-1 3-2-1v-3l-5-1-13-18-8-14-5-7z" fill="#DF7D19"/>
<path transform="translate(1742,829)" d="m0 0 5 5 7 8 6-1 1 4 3 1 8 11 5 4 5 2v2l-5 1-1 7 3 5 2 9h-2l-7-12-14-18-16-26z" fill="#DE7D1A"/>
<path transform="translate(1230,653)" d="m0 0h105l64 1 9 2 7 4 7 8 5 8 3 9v5l-3-3-6-11v-3h-2l-4-7-6-5-13-5-108-1-58-1z" fill="#3B2116"/>
<path transform="translate(1201,1023)" d="m0 0h8l2 1v4h-2l-2 4-2 5-3 28h-1l-1-5-6 6 1-14 3-19 2-9z" fill="#52321C"/>
<path transform="translate(1198,818)" d="m0 0 3 3 4 6 1 5-7 14-10 14-3 4-2 5-11-1-2-4h-2v-2l-7-2-8-5 1-2 8 4 13 3 11-4 8-10 6-12-1-10z" fill="#BB6B1F"/>
<path transform="translate(1877,796)" d="m0 0h2l1 2 1 11v26l-4 29-5 20-8 21-8 16-10 16-9 10-2 3-2-1 14-18 12-21 7-16 5-15 3-12 4-33v-21z" fill="#BB6B20"/>
<path transform="translate(1861,756)" d="m0 0 3 3 3 7 2 11h2l3 11 3 14 1 1 1 10v21l-4 33-6 22-2 2 2-10 4-15 3-27v-27l-2-10-2-4-1-6-7-14v-9z" fill="#2E1D18"/>
<path transform="translate(1098,822)" d="m0 0h1v37l-1 80-2-1-1-9v-39l1-51z" fill="#040304"/>
<path transform="translate(1406,763)" d="m0 0h1v56l-5-1-13-8-1-2h6l5-10 4-1 2 2z" fill="#E27F19"/>
<path transform="translate(1818,717)" d="m0 0 7 6 12 14 8 13 10 19 3 10 3 7v7l-2-2-11-27-9-16-5-9-9-12-7-7z" fill="#FAEBDB"/>
<path transform="translate(541,347)" d="m0 0 4 2 9 6 11 8 3 3v2l8 4 3 5 2 1-1 3-9-6-6-5v-2l-5-2-5-5-8-4 5 12 1 5h-2l-8-18-1-5z" fill="#E07E19"/>
<path transform="translate(1836,806)" d="m0 0 13 1h6v2h2l3 9 1 12-2-4-4-5-9-5h-7l-1-1v-7h-2z" fill="#E17E19"/>
<path transform="translate(1261,768)" d="m0 0 1 3-1 24-5 2-1 3-5 2v-8l2-6 1-16 3 3 3 1 1-7z" fill="#D97A1A"/>
<path transform="translate(441,1259)" d="m0 0 5 1-2 5-2 2h-3v2l-15 3-7-1v-6l5-2 16-3z" fill="#FBF5ED"/>
<path transform="translate(1618,968)" d="m0 0 5 2 16 8 10 4 7 3v2l-10-2-6-1 2 3-6-1-12-5-4-4 9 3h3l-9-4v-2h-2v-2l-4-2z" fill="#22150B"/>
<path transform="translate(1196,817)" d="m0 0 3 3 2 4 1 10-7 14-8 9-11 4-15-4-7-4 2-1 10 4 10 1 8-3 8-8 4-5 2-7-1-10z" fill="#341F17"/>
<path transform="translate(1427,1306)" d="m0 0h2l6 17 3 4v3l-6 1-4-1v-2h-2l-1-4v-15z" fill="#F9EDDF"/>
<path transform="translate(1880,798)" d="m0 0h1l2 25v14l-2 20-3 15-4 9h-1l1-9 4-20 2-17z" fill="#3B2116"/>
<path transform="translate(1396,654)" d="m0 0 10 1 9 5 7 8 5 8 3 9v5l-3-3-6-11v-3h-2l-4-7-6-5-13-5z" fill="#583218"/>
<path transform="translate(1243,974)" d="m0 0 3 3 1 4-83 1h-45v-1l32-1 91-1z" fill="#DE7D19"/>
<path transform="translate(1369,988)" d="m0 0h13l4 1v2l2 1-6 2h-7l1-3-3 2-4 1h-10l-8-2 3-3 12 1z" fill="#3B2116"/>
<path transform="translate(1866,891)" d="m0 0 1 3-7 16-1-3-2 4-4 4-4 1-1-3 4-8 8-8 2 1 2-2z" fill="#2B1C19"/>
<path transform="translate(1742,829)" d="m0 0 5 5 7 8 6-1 1 4-1 2h-2l2 6 3 5-1 3-4-4-16-26z" fill="#F08E25"/>
<path transform="translate(647,536)" d="m0 0 4 5 9 15 7 11 7 8 7 10 3 7-3-1-10-14-10-15-12-20-2-3z" fill="#D6781B"/>
<path transform="translate(1880,758)" d="m0 0 2 3 7 21 3 13-1 4-2-2-3-4-3-19-3-8z" fill="#623819"/>
<path transform="translate(1748,814)" d="m0 0h7l3 2 2 1-1 5-2 3-6 1-5-4 1-5-9-1v-1z" fill="#BB6B1F"/>
<path transform="translate(1653,824)" d="m0 0 3 3 1 7-5 12-6 9-9 8-11 1-7-2 4-1h10l7-4 8-9 4-7 1-10z" fill="#331E17"/>
<path transform="translate(415,1236)" d="m0 0 6 1 2 6v4l-8 1-4-3v-5z" fill="#F8EBDD"/>
<path transform="translate(370,616)" d="m0 0 7 6 14 13 8 4 5-2-1 5-2 3-1-3-10-4-10-7-8-11z" fill="#E07E19"/>
<path transform="translate(1610,988)" d="m0 0 19 9 13 6 5 2v2l2 1-9-2-8-4-7-3-12-6-5-3z" fill="#50311B"/>
<path transform="translate(1656,827)" d="m0 0 3 2-1 8-8 16-9 10-2 2h-15l-2-2h8l7-1 10-9 8-16 1-8z" fill="#BB6B20"/>
<path transform="translate(1620,989)" d="m0 0 5 1 26 10 12 4v1l-10-1-15-5-17-8z" fill="#2A1C1A"/>
<path transform="translate(1861,839)" d="m0 0h1v17l-4 18-4 11-1-3 5-22z" fill="#F99427"/>
<path transform="translate(1777,746)" d="m0 0h5l11 10 7 6 5 6-1 2-12-12-5-4-8-3z" fill="#E17E19"/>
<path transform="translate(476,513)" d="m0 0 4 1 5 2-1 4-6 8h-2l-1-14z" fill="#F49126"/>
<path transform="translate(1201,1023)" d="m0 0h8l2 1v4h-2l-2 4-4 4-2-5z" fill="#1B1008"/>
<path transform="translate(1686,993)" d="m0 0h38l-4 2-11 1h-13l-10-1z" fill="#0A0707"/>
<path transform="translate(391,1267)" d="m0 0 6 1 2 2v4l-2 1h-8l-2-2 1-4z" fill="#F5C898"/>
<path transform="translate(1277,810)" d="m0 0 6 1v2l5 2 1 5h-10l-1-1v-5-2z" fill="#DF7D19"/>
<path transform="translate(1692,642)" d="m0 0h30l3 2-32 1-8 1 1-2z" fill="#6C411D"/>
<path transform="translate(1687,811)" d="m0 0 2 1-3 4-9 3-3 2h-6l-3-5h9z" fill="#D4771B"/>
<path transform="translate(1688,968)" d="m0 0 4 2 8 7 8 5 10 3-1 2h-6l-4-2v-2l-5-1-7-5v-2l-4-2z" fill="#E27F19"/>
<path transform="translate(1569,955)" d="m0 0h2l17 17 7 5-2 2-10-8-14-14z" fill="#322019"/>
<path transform="translate(1713,801)" d="m0 0 5 2 4 5-1 2-5 1-4-4-1-4z" fill="#BB6B20"/>
<path transform="translate(1184,802)" d="m0 0h9l2 6 3 8-1 2-7-10-6-5z" fill="#D5781B"/>
<path transform="translate(1801,989)" d="m0 0m-1 1 3 2-16 8-11 5h-2v-2l21-10z" fill="#56341C"/>
<path transform="translate(1704,1069)" d="m0 0 4 1 6 6v5l-5-2-3-5-1-2-3 2 1-4z" fill="#462B1A"/>
<path transform="translate(337,578)" d="m0 0 5 2 5 6v2h2l2 5v3l-5-5-9-11z" fill="#DF7D19"/>
<path transform="translate(1365,783)" d="m0 0 5 3v2h2l10 14 1 2-4-2-8-9-6-8z" fill="#DC7C19"/>
<path transform="translate(1098,657)" d="m0 0 2 1-2 4-4 1-1 3-8 7-1-3 7-8z" fill="#5D3619"/>
<path transform="translate(1657,675)" d="m0 0m-3 1h3v2l3 1-14 5-3-1v-2z" fill="#58361C"/>
<path transform="translate(1109,653)" d="m0 0h6l-4 2h-2l-1 4-5 2-3-3v-2z" fill="#643919"/>
<path transform="translate(1327,748)" d="m0 0 5 2 14 11 5 5-1 2-12-11-8-6-3-1z" fill="#E27F19"/>
<path transform="translate(1586,685)" d="m0 0 2 1-2 1zm-1 2m-2 1 2 1-20 20v-3l12-12z" fill="#874D1C"/>
<path transform="translate(1811,675)" d="m0 0 4 1 11 8 3 4-5-2-10-7z" fill="#24170F"/>
<path transform="translate(713,319)" d="m0 0 7 6 1 2h-4l-1 3h-2l-2-7z" fill="#DE7D19"/>
<path transform="translate(1528,886)" d="m0 0 1 2h2l5 12-1 4-2-2-5-13z" fill="#5E391C"/>
<path transform="translate(1880,758)" d="m0 0 2 3 4 11v3l-3-1-3-8z" fill="#6B3D1A"/>
<path transform="translate(1717,800)" d="m0 0h2l7 8 5 3v2l-5-2-5-3-4-5z" fill="#E58522"/>
<path transform="translate(1761,847)" d="m0 0 4 1 7 9-1 3-7-8-1-4z" fill="#EC8A24"/>
<path transform="translate(1653,824)" d="m0 0 3 3 1 7-2 6h-1z" fill="#351F17"/>
<path transform="translate(1687,811)" d="m0 0 2 1-3 4-9 1-3-1z" fill="#CB731D"/>
<path transform="translate(1524,868)" d="m0 0 2 3 3 11v3h-2l-3-10z" fill="#603A1C"/>
<path transform="translate(1544,799)" d="m0 0 3 2-1 16h-1v-10h-2z" fill="#79481D"/>
<path transform="translate(1785,659)" d="m0 0 5 2 10 5-3 2-11-6z" fill="#402819"/>
<path transform="translate(1553,935)" d="m0 0h2l3 3 4 7-1 3-8-11z" fill="#271810"/>
<path transform="translate(1292,832)" d="m0 0 4 5 5 10-3-1-6-11z" fill="#E58623"/>
<path transform="translate(1641,869)" d="m0 0h4l-1 5-4 2z" fill="#F18E24"/>
<path transform="translate(1826,793)" d="m0 0h2v2l3 1 5 7-1 3-9-11z" fill="#D7791A"/>
<path transform="translate(1550,786)" d="m0 0 1 2-3 11h-1l-1-8 2-4z" fill="#643C19"/>
<path transform="translate(1533,759)" d="m0 0h2l-1 5-3 8h-2l1-6z" fill="#6B401D"/>
<path transform="translate(1561,756)" d="m0 0h1l-1 7-3 6h-1v-6z" fill="#5A3513"/>
<path transform="translate(1631,685)" d="m0 0m-1 1m-2 1 3 1-1 3-6 2v-3z" fill="#2D1D16"/>
</svg>
